<?xml version="1.0" encoding="utf-8"?>
<!-- Generator: Adobe Illustrator 24.2.1, SVG Export Plug-In . SVG Version: 6.00 Build 0)  -->
<svg version="1.1" id="Layer_1" xmlns="http://www.w3.org/2000/svg" xmlns:xlink="http://www.w3.org/1999/xlink" x="0px" y="0px"
	 viewBox="0 0 44 30" style="enable-background:new 0 0 44 30;" xml:space="preserve">
<style type="text/css">
	.st0{fill:#2C3E50;}
</style>
<desc>Created with Sketch.</desc>
<g>
	<path class="st0" d="M25.9,0h-7.8c-1.3,0-2.3,1-2.3,2.3v25.3c0,1.3,1.1,2.3,2.3,2.3h7.8c1.3,0,2.3-1,2.3-2.3V2.3
		C28.2,1,27.2,0,25.9,0z M24.9,15.3v4.8v4.2v2.3h-2.3h-1.2h-2.3v-2.3v-4.2v-6.6V8.8V5.6V3.3h2.3h1.2h2.3v2.3v3.1V15.3z"/>
	<path class="st0" d="M31.5,0v30h7.8c2.6,0,4.7-2.1,4.7-4.7V4.7C44,2.1,41.9,0,39.3,0H31.5z M38.4,26.7h-3.5V3.3h3.5
		c1.3,0,2.3,1,2.3,2.3v18.7C40.7,25.7,39.6,26.7,38.4,26.7z"/>
	<polygon class="st0" points="0,0 3.3,0 3.4,0.4 6.2,8.8 9,0.4 9.2,0 12.5,0 12.5,30 9.2,30 9.2,8.8 6.2,15 3.3,8.8 3.3,30 0,30 	
		"/>
</g>
</svg>
