<?xml version="1.0" encoding="utf-8"?>
<!-- Generator: Adobe Illustrator 23.0.3, SVG Export Plug-In . SVG Version: 6.00 Build 0)  -->
<svg version="1.1" id="Layer_1" xmlns="http://www.w3.org/2000/svg" xmlns:xlink="http://www.w3.org/1999/xlink" x="0px" y="0px"
	 viewBox="0 0 40 30" style="enable-background:new 0 0 40 30;" xml:space="preserve">
<style type="text/css">
	.st0{fill:#2C3E50;}
</style>
<title>Logo</title>
<desc>Created with Sketch.</desc>
<g>
	<g>
		<path class="st0" d="M28.7,0v30h7.1c2.4,0,4.3-2.1,4.3-4.7V4.7C40,2.1,38.1,0,35.7,0H28.7z M34.9,26.7h-3.2V3.3h3.2
			c1.2,0,2.1,1,2.1,2.3v18.7C37,25.7,36,26.7,34.9,26.7z"/>
	</g>
	<g>
		<path class="st0" d="M16.5,0h7.1c1.2,0,2.1,1,2.1,2.3v6.4h-3V3.3h-5.3v5.5l7.9,10.7c0.3,0.4,0.5,0.9,0.5,1.5v6.7
			c0,1.3-1,2.3-2.1,2.3h-7.1c-1.2,0-2.1-1-2.1-2.3v-6.4h3v5.5h5.3v-5.5l-7.9-10.7c-0.3-0.4-0.5-0.9-0.5-1.5V2.3
			C14.3,1,15.3,0,16.5,0z"/>
	</g>
	<g>
		<polygon class="st0" points="0,0 3,0 5.7,8.8 8.3,0 11.3,0 11.3,30 8.3,30 8.3,8.8 5.7,15 3,8.8 3,30 0,30 		"/>
	</g>
</g>
</svg>
